<?xml version="1.0" encoding="utf-8"?>

<!DOCTYPE svg PUBLIC "-//W3C//DTD SVG 1.1//EN" "http://www.w3.org/Graphics/SVG/1.1/DTD/svg11.dtd">
<!-- Uploaded to: SVG Repo, www.svgrepo.com, Generator: SVG Repo Mixer Tools -->
<svg version="1.1" id="_x32_" xmlns="http://www.w3.org/2000/svg" xmlns:xlink="http://www.w3.org/1999/xlink" 
	 viewBox="0 0 512 512"  xml:space="preserve">
<style type="text/css">
	.st0{fill:#000000;}
</style>
<g>
	<rect x="124.839" class="st0" width="262.323" height="25.277"/>
	<path class="st0" d="M412.384,80.067c-4.205-7.368-31.604-43.201-31.604-43.201h-31.154
		c-14.059,17.23-49.836,82.292-12.252,272.871c7.368,37.332,11.06,124.831-12.702,167.495h-93.692
		c32.116-39.501,74.79-116.933,62.142-208.59C276.99,151.74,274.37,80.162,290.969,36.866H131.221c0,0-27.399,35.832-31.604,43.201
		c-4.228,7.376-3.156,10.532-3.156,21.072c0,10.532,0,336.063,0,349.752c0,13.696,3.897,31.154,13.688,35.832
		C130.054,496.19,122.677,512,143.86,512h224.282c21.182,0,13.806-15.81,33.71-25.277c9.791-4.678,13.688-22.137,13.688-35.832
		c0-13.688,0-339.22,0-349.752C415.54,90.599,416.605,87.444,412.384,80.067z"/>
</g>
</svg>