<?xml version="1.0" encoding="iso-8859-1"?>
<!-- Uploaded to: SVG Repo, www.svgrepo.com, Generator: SVG Repo Mixer Tools -->
<svg height="800px" width="800px" version="1.1" id="Layer_1" xmlns="http://www.w3.org/2000/svg" xmlns:xlink="http://www.w3.org/1999/xlink" 
	 viewBox="0 0 512 512" xml:space="preserve">
<ellipse transform="matrix(-0.8322 0.5545 -0.5545 -0.8322 705.4572 23.8977)" style="fill:#8CE16E;" cx="349.112" cy="118.698" rx="49.426" ry="27.524"/>
<path style="fill:#7DC86E;" d="M390.242,91.295c8.429,12.65-3.152,35.176-25.868,50.312c-22.716,15.137-47.964,17.15-56.393,4.5
	L390.242,91.295z"/>
<ellipse transform="matrix(-0.8322 -0.5545 0.5545 -0.8322 232.6301 307.8006)" style="fill:#8CE16E;" cx="162.891" cy="118.699" rx="49.426" ry="27.524"/>
<path style="fill:#7DC86E;" d="M121.759,91.295c-8.429,12.65,3.152,35.176,25.868,50.312c22.716,15.137,47.964,17.15,56.393,4.5
	L121.759,91.295z"/>
<ellipse style="fill:#8CE16E;" cx="256.171" cy="76.426" rx="34.205" ry="68.409"/>
<path style="fill:#7DC86E;" d="M221.971,76.426c0,37.781,15.314,68.409,34.205,68.409V8.017
	C237.285,8.017,221.971,38.645,221.971,76.426z"/>
<path style="fill:#FF556E;" d="M256.176,213.244c70.84,0,128.267,40.325,128.267,111.165c0,85.512-111.165,111.165-128.267,153.921
	c-17.102-42.756-128.267-68.409-128.267-153.921C127.909,253.569,185.336,213.244,256.176,213.244z"/>
<path style="fill:#FF96A0;" d="M308.017,430.788c16.055-11.18,33.028-23.311,46.92-37.968c0-0.001,0.001-0.001,0.002-0.002H157.411
	c0.001,0,0.002,0.001,0.002,0.002c13.892,14.656,30.866,26.788,46.92,37.968c23.533,16.349,45.068,30.609,51.841,47.542
	C262.949,461.396,284.484,447.137,308.017,430.788z"/>
<path style="fill:#D74664;" d="M196.318,324.409l0.62-17.102c2.011-30.319,9.357-53.963,20.025-69.967
	c2.225-3.338,2.154-7.714,0.164-11.198l0,0c-2.45-4.287-7.574-6.459-12.262-4.912c-45.27,14.94-76.955,50.608-76.955,103.178
	c0,51.309,40.008,81.068,75.71,105.902c8.917,6.203,20.139-3.698,15.098-13.319C206.993,394.614,196.318,366.899,196.318,324.409z"
	/>
<path style="fill:#FF6F82;" d="M203.811,430.394c8.888,5.899,19.892-3.883,14.889-13.436c-3.841-7.333-7.523-15.33-10.799-24.14
	h-50.489C171.139,407.302,187.902,419.327,203.811,430.394z"/>
<path d="M247.625,359.148h-17.102c-4.427,0-8.017,3.589-8.017,8.017c0,4.427,3.589,8.017,8.017,8.017h17.102
	c4.427,0,8.017-3.589,8.017-8.017C255.641,362.738,252.052,359.148,247.625,359.148z"/>
<path d="M298.931,323.875h17.102c4.427,0,8.017-3.589,8.017-8.017c0-4.427-3.589-8.017-8.017-8.017h-17.102
	c-4.427,0-8.017,3.589-8.017,8.017C290.915,320.285,294.504,323.875,298.931,323.875z"/>
<path d="M204.869,307.841h-8.551c-4.427,0-8.017,3.589-8.017,8.017c0,4.427,3.589,8.017,8.017,8.017h8.551
	c4.427,0,8.017-3.589,8.017-8.017C212.886,311.431,209.296,307.841,204.869,307.841z"/>
<path d="M247.625,256.534c-4.427,0-8.017,3.589-8.017,8.017c0,4.427,3.589,8.017,8.017,8.017h8.551c4.427,0,8.017-3.589,8.017-8.017
	c0-4.427-3.589-8.017-8.017-8.017H247.625z"/>
<path d="M307.022,156.552c5.182,3.859,12.084,5.887,20.236,5.887c1.365,0,2.766-0.057,4.198-0.171
	c11.99-0.957,25.258-5.925,37.362-13.99c12.104-8.064,21.799-18.397,27.298-29.093c6.275-12.205,6.559-23.688,0.797-32.334
	c-5.761-8.646-16.463-12.809-30.148-11.716c-11.99,0.957-25.258,5.925-37.362,13.99c-23.15,15.425-35.496,37.649-31.319,54.107
	c-12.039,8.81-24.245,18.773-33.892,28.906v-20.58c9.099-2.943,17.204-10.902,23.339-23.175
	c7.007-14.012,10.865-32.464,10.865-51.958s-3.859-37.946-10.865-51.958C279.643,8.689,268.508,0,256.176,0
	c-12.332,0-23.468,8.689-31.357,24.468c-7.006,14.012-10.864,32.464-10.864,51.958s3.859,37.946,10.864,51.958
	c6.137,12.272,14.241,20.232,23.34,23.175v20.58c-9.728-10.216-22.056-20.261-34.191-29.125
	c4.015-16.436-8.323-38.533-31.371-53.889c-12.104-8.065-25.372-13.033-37.362-13.99c-13.684-1.092-24.387,3.07-30.148,11.716
	c-5.762,8.646-5.479,20.13,0.796,32.334c5.499,10.696,15.194,21.028,27.298,29.093c12.103,8.065,25.372,13.033,37.362,13.99
	c1.432,0.114,2.833,0.171,4.198,0.171c8.242,0,15.205-2.077,20.406-6.019c21.906,16.017,36.657,30.318,43.01,41.718v7.266
	c-34.218,1.453-65.139,12.2-87.75,30.646c-26.506,21.625-40.517,52.178-40.517,88.36c0,57.604,46.319,89.712,83.538,115.511
	c19.8,13.726,38.537,26.714,44.729,40.061v24.001c0,4.427,3.589,8.017,8.017,8.017c4.427,0,8.017-3.589,8.017-8.017v-24.001
	c6.191-13.347,24.929-26.336,44.729-40.061c37.219-25.799,83.538-57.907,83.538-115.511c0-36.181-14.011-66.735-40.517-88.36
	c-22.61-18.445-53.531-29.194-87.75-30.646v-7.266C270.529,186.77,285.217,172.516,307.022,156.552z M338.294,102.467
	c9.727-6.481,20.569-10.617,29.747-11.35c7.508-0.602,13.172,1.086,15.53,4.624c2.358,3.538,1.733,9.411-1.713,16.112
	c-4.21,8.188-12.204,16.601-21.929,23.082c-9.726,6.481-20.569,10.617-29.747,11.351c-2.983,0.236-5.668,0.108-7.976-0.347
	c17.395-11.643,31.763-19.658,31.928-19.75c3.869-2.151,5.263-7.031,3.113-10.902c-2.151-3.87-7.031-5.264-10.899-3.114
	c-1.347,0.748-15.361,8.587-32.548,20.08C315.96,123.395,324.51,111.651,338.294,102.467z M181.82,146.286
	c-9.179-0.733-20.02-4.87-29.747-11.351c-9.727-6.481-17.719-14.894-21.929-23.082c-3.446-6.702-4.07-12.574-1.712-16.113
	c2.044-3.069,6.57-4.743,12.636-4.743c0.929,0,1.895,0.04,2.892,0.119c9.178,0.732,20.02,4.869,29.747,11.35
	c13.639,9.088,22.158,20.684,24.43,29.509c-16.995-11.341-30.795-19.061-32.131-19.802c-3.869-2.151-8.751-0.756-10.901,3.115
	c-2.151,3.87-0.756,8.751,3.115,10.901c0.164,0.091,14.464,8.064,31.846,19.694C187.698,146.385,184.92,146.532,181.82,146.286z
	 M239.16,121.214c-5.914-11.829-9.172-27.736-9.172-44.788s3.257-32.958,9.172-44.788c4.959-9.917,11.16-15.605,17.016-15.605
	c5.855,0,12.057,5.688,17.016,15.605c5.915,11.829,9.172,27.736,9.172,44.788s-3.257,32.958-9.172,44.788
	c-2.714,5.428-5.801,9.577-8.999,12.232v-57.02c0-4.427-3.589-8.017-8.017-8.017c-4.427,0-8.017,3.589-8.017,8.017v57.02
	C244.961,130.791,241.874,126.641,239.16,121.214z M376.426,324.409c0,33.842-19.257,57.759-42.967,77.495h-34.527
	c-4.427,0-8.017,3.589-8.017,8.017c0,4.427,3.589,8.017,8.017,8.017h13.445c-4.214,2.997-8.434,5.925-12.589,8.806
	c-17.793,12.334-33.747,23.394-43.611,35.991c-9.865-12.598-25.819-23.658-43.611-35.991c-4.156-2.881-8.376-5.809-12.589-8.806
	h64.751c4.427,0,8.017-3.589,8.017-8.017c0-4.427-3.589-8.017-8.017-8.017h-85.834c-23.711-19.736-42.967-43.653-42.967-77.495
	c0-31.201,11.972-57.459,34.619-75.936c21.51-17.547,51.922-27.212,85.631-27.212s64.121,9.665,85.631,27.212
	C364.455,266.95,376.426,293.208,376.426,324.409z"/>
</svg>