<?xml version="1.0" ?>
<!-- Uploaded to: SVG Repo, www.svgrepo.com, Generator: SVG Repo Mixer Tools -->
<svg width="800px" height="800px" viewBox="0 0 128 128" xmlns="http://www.w3.org/2000/svg">
<title/>
<path d="M94,115h0a6,6,0,0,0,6-6c0-6-6-14-6-14s-6,8-6,14A6,6,0,0,0,94,115Z" style="fill: #ef4b4b"/>
<path d="M110,92h0a6,6,0,0,0,6-6c0-6-6-14-6-14s-6,8-6,14A6,6,0,0,0,110,92Z" style="fill: #ef4b4b"/>
<path d="M62,32.9a3,3,0,0,0,0,4.24L78.23,53.41a34.92,34.92,0,0,1,10.25,25.1,35,35,0,0,0,34.65-34.65A34.92,34.92,0,0,1,98,33.61L81.76,17.35a3,3,0,0,0-4.24,0Z" style="fill: #505d68"/>
<path d="M123.13,43.86A35,35,0,0,1,88.48,78.51a34.9,34.9,0,0,0-10.25-25.1L72,47.13l9.65-9.65a8,8,0,0,0,0-11.31l-6.45-6.45,2.37-2.36a3,3,0,0,1,4.24,0L98,33.61A34.9,34.9,0,0,0,123.13,43.86Z" style="fill: #5a6a72"/>
<path d="M123.13,43.86A35,35,0,0,1,88.48,78.51a35.64,35.64,0,0,0-1.33-9.94,34.93,34.93,0,0,0,26-26A35.24,35.24,0,0,0,123.13,43.86Z" style="fill: #bacbce"/>
<path d="M88.37,75.78l-.1-2a31,31,0,0,0,30.12-30.14l2,.1a33,33,0,0,1-32,32Z" style="fill: #fff"/>
<path d="M119.13,59.76A35,35,0,0,1,88.48,78.51a35,35,0,0,0-.34-5.21S90,69,97,68c8-1.14,9.46-1.46,13-5C115,58,119.13,59.76,119.13,59.76Z" style="fill: #ef4b4b"/>
<path d="M86,18.76l3.18-3.18a7.5,7.5,0,0,1,10.61,0h0a7.5,7.5,0,0,1,0,10.61l-3.18,3.18" style="fill: #a2542a"/>
<path d="M102,20.88a7.44,7.44,0,0,1-2.2,5.3l-3.18,3.19-4-4,3.18-3.19a7.44,7.44,0,0,0,2.2-5.3A7.35,7.35,0,0,0,97.4,14a7.52,7.52,0,0,1,2.39,1.61A7.44,7.44,0,0,1,102,20.88Z" style="fill: #d3987f"/>
<path d="M73.51,52.47,19.18,106.79a7.5,7.5,0,0,1-10.61,0h0a7.5,7.5,0,0,1,0-10.61l54-54Z" style="fill: #a2542a"/>
<polygon points="73.51 52.47 62.55 42.21 58.97 45.8 69.57 56.41 73.51 52.47" style="fill: #8c3e23"/>
<path d="M14.68,102.29A7.49,7.49,0,0,1,6.83,104a7.49,7.49,0,0,0,12.35,2.76L69.57,56.41l-4.5-4.5Z" style="fill: #d3987f"/>
<polygon points="68.86 48.12 65.07 51.91 69.57 56.41 73.51 52.47 68.86 48.12" style="fill: #c38163"/>
<g>
<path d="M115,70.38a37.8,37.8,0,0,0,11.13-26.48,3,3,0,0,0-3-3,31.66,31.66,0,0,1-23-9.37l-.71-.71,2.48-2.48A10.5,10.5,0,1,0,87.07,13.46l-2.47,2.47-.71-.71a6,6,0,0,0-8.48,0L59.84,30.78h0a6,6,0,0,0,0,8.48l.71.71L6.46,94.07a10.5,10.5,0,0,0,14.85,14.85L75.4,54.82l.71.71A31.83,31.83,0,0,1,84.16,69s0,0,0,0,0,.07,0,.1a32.21,32.21,0,0,1,1.28,9.32,3,3,0,0,0,3,3h0a37.79,37.79,0,0,0,20.22-6.07C110.47,78.13,113,82.75,113,86a3,3,0,0,1-6,0,7.86,7.86,0,0,1,.11-1.26,3,3,0,1,0-5.92-1A13.88,13.88,0,0,0,101,86a9,9,0,0,0,18,0c0-5.29-3.58-11.36-5.49-14.22C114,71.33,114.51,70.86,115,70.38ZM91.31,17.7a4.5,4.5,0,1,1,6.36,6.36L95.2,26.54l-6.36-6.36Zm-74.25,87a4.5,4.5,0,0,1-6.36-6.36L64.79,44.22l6.36,6.36ZM90.7,70.44a38,38,0,0,0,21.55-17.83A3,3,0,1,0,107,49.72a32,32,0,0,1-18,15,37.88,37.88,0,0,0-8.67-13.39l-2.83-2.82h0L66.93,37.87l0,0,0,0L64.08,35h0L79.64,19.47l2.83,2.83h0l10.6,10.6h0l2.82,2.82a37.7,37.7,0,0,0,24.06,11A32,32,0,0,1,91.38,75.35,38.19,38.19,0,0,0,90.7,70.44Z" style="fill: #31352e"/>
<path d="M94,92a3,3,0,0,0-2.4,1.2c-.68.9-6.6,9-6.6,15.8a9,9,0,0,0,18,0c0-6.8-5.92-14.9-6.6-15.8A3,3,0,0,0,94,92Zm0,20a3,3,0,0,1-3-3c0-2.53,1.5-5.84,3-8.47,1.49,2.63,3,6,3,8.47A3,3,0,0,1,94,112Z" style="fill: #31352e"/>
</g>
</svg>